<svg xmlns="http://www.w3.org/2000/svg" xmlns:xlink="http://www.w3.org/1999/xlink" zoomAndPan="magnify" preserveAspectRatio="xMidYMid meet" version="1.0" viewBox="58.94 145.84 257.25 73.81"><defs><g/><clipPath id="1d2e9d0abf"><path d="M 58.941406 145.835938 L 316.191406 145.835938 L 316.191406 190.085938 L 58.941406 190.085938 Z M 58.941406 145.835938 " clip-rule="nonzero"/></clipPath></defs><g clip-path="url(#1d2e9d0abf)"><path fill="#a83a11" d="M 71.34375 170.015625 C 73.1875 168.726562 74.144531 167.515625 74.144531 166.226562 C 74.144531 164.699219 73.1875 163.410156 71.984375 162.441406 C 71.34375 161.796875 68.863281 160.910156 70.464844 158.414062 C 84.066406 161.878906 127.277344 145.929688 164.882812 145.929688 C 188.488281 145.929688 211.132812 149.957031 233.855469 159.382812 C 248.179688 159.382812 303.46875 165.34375 316.191406 186.929688 C 315.554688 187.574219 314.671875 189.105469 314.351562 190.070312 L 311.230469 190.070312 C 311.550781 189.105469 312.191406 187.894531 312.753906 186.929688 C 304.671875 174.445312 246.898438 164.375 231.054688 164.375 C 208.332031 154.066406 185.367188 150.925781 164.882812 150.925781 C 125.117188 150.925781 97.191406 164.054688 75.425781 162.523438 C 75.425781 164.054688 77.90625 165.664062 77.90625 168.160156 C 77.90625 170.335938 76.945312 172.511719 75.425781 174.445312 C 70.464844 174.363281 62.945312 179.117188 62.945312 189.988281 L 58.941406 189.988281 C 58.941406 184.671875 58.941406 175.972656 71.34375 170.015625 Z M 71.34375 170.015625 " fill-opacity="1" fill-rule="nonzero"/></g><g fill="#a83a11" fill-opacity="1"><g transform="translate(74.570419, 218.736314)"><g><path d="M 14.769531 0.914062 C 22.574219 0.914062 28.820312 -4.074219 30.683594 -11.648438 L 21.660156 -12.601562 C 20.671875 -9.515625 18.273438 -7.5 15.53125 -7.5 C 12.828125 -7.5 11.308594 -9.289062 11.308594 -12.296875 C 11.308594 -15.953125 13.132812 -19.949219 16.636719 -19.949219 C 18.882812 -19.949219 20.292969 -18.199219 20.367188 -15.457031 L 29.617188 -17.4375 C 29.921875 -24.023438 25.316406 -28.324219 17.359375 -28.324219 C 7.917969 -28.324219 1.332031 -20.785156 1.332031 -11.34375 C 1.332031 -3.65625 6.472656 0.914062 14.769531 0.914062 Z M 14.769531 0.914062 "/></g></g></g><g fill="#a83a11" fill-opacity="1"><g transform="translate(105.439115, 218.736314)"><g><path d="M -1.5625 0 L 8.148438 0 L 10.050781 -4.265625 L 17.625 -4.265625 L 17.96875 0 L 28.210938 0 L 23.753906 -27.410156 L 11.574219 -27.410156 Z M 12.371094 -10.660156 L 16.445312 -20.0625 L 16.523438 -20.0625 L 17.320312 -10.660156 Z M 12.371094 -10.660156 "/></g></g></g><g fill="#a83a11" fill-opacity="1"><g transform="translate(135.203994, 218.736314)"><g><path d="M 20.671875 0.609375 C 23.109375 0.609375 25.695312 -0.113281 27.449219 -1.257812 L 26.953125 -5.558594 C 26.535156 -5.367188 26 -5.175781 25.507812 -5.175781 C 24.820312 -5.175781 24.480469 -5.710938 24.363281 -6.433594 L 24.210938 -7.996094 C 24.058594 -9.480469 23.640625 -10.429688 22.613281 -10.851562 L 22.613281 -10.886719 C 26.609375 -12.488281 28.78125 -15.683594 28.78125 -19.566406 C 28.78125 -24.632812 25.011719 -27.410156 18.160156 -27.410156 L 4.53125 -27.410156 L 0.191406 0 L 10.089844 0 L 11.535156 -9.136719 L 12.867188 -9.136719 C 14.046875 -9.136719 14.464844 -8.183594 14.617188 -7.082031 L 14.886719 -4.570312 C 15.226562 -1.371094 17.398438 0.609375 20.671875 0.609375 Z M 12.488281 -15.226562 L 13.324219 -20.558594 L 16.257812 -20.558594 C 17.894531 -20.558594 18.804688 -19.757812 18.804688 -18.351562 C 18.804688 -16.332031 17.589844 -15.226562 15.417969 -15.226562 Z M 12.488281 -15.226562 "/></g></g></g><g fill="#304543" fill-opacity="1"><g transform="translate(164.312605, 218.736314)"><g><path d="M 6.128906 0 L 16.027344 0 L 19.035156 -19.035156 L 25.964844 -19.035156 L 27.296875 -27.410156 L 3.539062 -27.410156 L 2.207031 -19.035156 L 9.136719 -19.035156 Z M 6.128906 0 "/></g></g></g><g fill="#304543" fill-opacity="1"><g transform="translate(189.586113, 218.736314)"><g><path d="M 20.671875 0.609375 C 23.109375 0.609375 25.695312 -0.113281 27.449219 -1.257812 L 26.953125 -5.558594 C 26.535156 -5.367188 26 -5.175781 25.507812 -5.175781 C 24.820312 -5.175781 24.480469 -5.710938 24.363281 -6.433594 L 24.210938 -7.996094 C 24.058594 -9.480469 23.640625 -10.429688 22.613281 -10.851562 L 22.613281 -10.886719 C 26.609375 -12.488281 28.78125 -15.683594 28.78125 -19.566406 C 28.78125 -24.632812 25.011719 -27.410156 18.160156 -27.410156 L 4.53125 -27.410156 L 0.191406 0 L 10.089844 0 L 11.535156 -9.136719 L 12.867188 -9.136719 C 14.046875 -9.136719 14.464844 -8.183594 14.617188 -7.082031 L 14.886719 -4.570312 C 15.226562 -1.371094 17.398438 0.609375 20.671875 0.609375 Z M 12.488281 -15.226562 L 13.324219 -20.558594 L 16.257812 -20.558594 C 17.894531 -20.558594 18.804688 -19.757812 18.804688 -18.351562 C 18.804688 -16.332031 17.589844 -15.226562 15.417969 -15.226562 Z M 12.488281 -15.226562 "/></g></g></g><g fill="#304543" fill-opacity="1"><g transform="translate(218.703932, 218.736314)"><g><path d="M -1.5625 0 L 8.148438 0 L 10.050781 -4.265625 L 17.625 -4.265625 L 17.96875 0 L 28.210938 0 L 23.753906 -27.410156 L 11.574219 -27.410156 Z M 12.371094 -10.660156 L 16.445312 -20.0625 L 16.523438 -20.0625 L 17.320312 -10.660156 Z M 12.371094 -10.660156 "/></g></g></g><g fill="#304543" fill-opacity="1"><g transform="translate(248.468811, 218.736314)"><g><path d="M 0.191406 0 L 12.488281 0 C 23.601562 0 29.769531 -5.863281 29.769531 -16.179688 C 29.769531 -23.488281 24.898438 -27.410156 16.105469 -27.410156 L 4.53125 -27.410156 Z M 10.886719 -7.613281 L 12.828125 -19.796875 L 15.570312 -19.796875 C 18.273438 -19.796875 19.757812 -18.199219 19.757812 -14.960938 C 19.757812 -10.355469 17.589844 -7.613281 13.628906 -7.613281 Z M 10.886719 -7.613281 "/></g></g></g><g fill="#304543" fill-opacity="1"><g transform="translate(278.385942, 218.736314)"><g><path d="M 0.191406 0 L 19.757812 0 L 20.9375 -7.613281 L 10.886719 -7.613281 L 11.382812 -10.660156 L 19.53125 -10.660156 L 20.558594 -17.132812 L 12.410156 -17.132812 L 12.828125 -19.796875 L 22.5 -19.796875 L 23.71875 -27.410156 L 4.53125 -27.410156 Z M 0.191406 0 "/></g></g></g></svg>